<svg width="31" height="30" viewBox="0 0 31 30" fill="none" xmlns="http://www.w3.org/2000/svg">
<path d="M16.6725 8.23601C15.9284 8.9785 14.7225 8.9785 13.9784 8.23601C13.2345 7.49352 13.2345 6.2896 13.9784 5.5471C14.7225 4.80461 15.9284 4.80461 16.6725 5.5471C17.4164 6.2896 17.4164 7.49352 16.6725 8.23601Z" fill="#9C4DF4"/>
<path d="M19.275 11.1168C19.0429 11.1168 18.8108 11.0283 18.6341 10.8509C18.2807 10.497 18.2814 9.92369 18.6352 9.57052C19.3523 8.85481 19.7471 7.90335 19.7471 6.89146C19.7471 5.87957 19.3523 4.92811 18.6352 4.2124C18.2814 3.85901 18.2807 3.28589 18.6341 2.93181C18.9873 2.57795 19.5606 2.57727 19.9145 2.93066C20.9744 3.98855 21.5581 5.39503 21.5581 6.89146C21.5581 8.38766 20.9744 9.79437 19.9145 10.8523C19.7378 11.0287 19.5064 11.1168 19.275 11.1168Z" fill="#9C4DF4"/>
<path d="M21.323 13.7827C21.0909 13.7827 20.8588 13.6941 20.6821 13.5169C20.3287 13.1628 20.3294 12.5897 20.6833 12.2363C22.1138 10.8086 22.9018 8.91044 22.9018 6.89148C22.9018 4.87251 22.1138 2.97439 20.6833 1.54663C20.3294 1.19323 20.3287 0.620114 20.6821 0.266034C21.0355 -0.0878177 21.6086 -0.0885043 21.9625 0.264889C23.7359 2.03483 24.7127 4.3882 24.7125 6.89148C24.7125 9.39476 23.7359 11.7483 21.9625 13.5183C21.7858 13.6945 21.5544 13.7827 21.323 13.7827Z" fill="#9C4DF4"/>
<path d="M11.3714 11.1164C11.14 11.1164 10.9086 11.0283 10.7317 10.8519C9.67172 9.79397 9.08807 8.38726 9.08807 6.89106C9.08807 5.39463 9.67172 3.98815 10.7317 2.93026C11.0855 2.57686 11.6589 2.57732 12.012 2.9314C12.3654 3.28525 12.3648 3.8586 12.0109 4.212C11.2938 4.92771 10.899 5.87917 10.899 6.89106C10.899 7.90295 11.2938 8.85441 12.0109 9.57012C12.3648 9.92329 12.3654 10.4966 12.012 10.8505C11.8353 11.0276 11.6033 11.1164 11.3714 11.1164Z" fill="#9C4DF4"/>
<path d="M9.3234 13.7835C9.09177 13.7835 8.86037 13.6954 8.68367 13.5189C6.9103 11.749 5.93365 9.3956 5.93365 6.89232C5.93365 4.38881 6.9103 2.03545 8.68367 0.265507C9.03753 -0.0876575 9.61088 -0.0871997 9.96404 0.26688C10.3174 0.620732 10.3167 1.19385 9.9629 1.54725C8.53238 2.97501 7.74434 4.87313 7.74434 6.89209C7.74434 8.91106 8.53238 10.8094 9.9629 12.2372C10.3167 12.5906 10.3174 13.1637 9.96404 13.5178C9.78734 13.6949 9.55526 13.7835 9.3234 13.7835Z" fill="#9C4DF4"/>
<path d="M27.2567 15.3479H3.38961C2.2198 15.3479 1.27155 16.2962 1.27155 17.4657V27.8819C1.27155 29.0517 2.2198 30 3.38961 30H27.2564C28.4263 30 29.3745 29.0517 29.3745 27.8819V17.4657C29.3745 16.2962 28.4263 15.3479 27.2567 15.3479ZM8.23663 27.2825H4.90069C4.40081 27.2825 3.99546 26.8771 3.99546 26.377V18.9709C3.99546 18.471 4.40081 18.0654 4.90069 18.0654C5.40079 18.0654 5.80614 18.4708 5.80614 18.9709V25.4715H8.23663C8.73674 25.4715 9.14209 25.8769 9.14209 26.377C9.14209 26.8771 8.73674 27.2825 8.23663 27.2825ZM11.9473 26.377C11.9473 26.8771 11.5419 27.2825 11.0418 27.2825C10.5417 27.2825 10.1363 26.8771 10.1363 26.377V18.9709C10.1363 18.471 10.5417 18.0654 11.0418 18.0654C11.5419 18.0654 11.9473 18.4708 11.9473 18.9709V26.377ZM19.5653 19.2327L17.3294 26.6386C17.3292 26.6393 17.3289 26.64 17.3287 26.6407C17.0859 27.4695 15.8479 27.4491 15.5965 26.6407C15.5963 26.64 15.5961 26.6393 15.5959 26.6386L13.3599 19.2327C13.2155 18.7539 13.4863 18.2487 13.9651 18.1041C14.4434 17.9597 14.949 18.2304 15.0935 18.7093L16.4626 23.2441L17.8318 18.7093C17.9764 18.2304 18.4816 17.9594 18.9604 18.1041C19.439 18.2487 19.71 18.7539 19.5653 19.2327ZM25.1356 21.3022C25.6357 21.3022 26.0411 21.7076 26.0411 22.2077C26.0411 22.7076 25.6357 23.1132 25.1356 23.1132H22.5662V25.4715H25.6234C26.1235 25.4715 26.5288 25.8769 26.5288 26.377C26.5288 26.8771 26.1235 27.2825 25.6234 27.2825H21.6608C21.1606 27.2825 20.7553 26.8771 20.7553 26.377V18.9709C20.7553 18.471 21.1606 18.0654 21.6608 18.0654H25.7454C26.2452 18.0654 26.6508 18.4708 26.6508 18.9709C26.6508 19.471 26.2452 19.8763 25.7454 19.8763H22.566V21.3022H25.1356Z" fill="#9C4DF4"/>
</svg>
