<svg width="83" height="30" viewBox="0 0 83 30" fill="none" xmlns="http://www.w3.org/2000/svg">
<path d="M56.75 10H79.25C79.5815 10 79.8995 9.8683 80.1339 9.63388C80.3683 9.39946 80.5 9.08152 80.5 8.75C80.5 8.41848 80.3683 8.10054 80.1339 7.86612C79.8995 7.6317 79.5815 7.5 79.25 7.5H56.75C56.4185 7.5 56.1005 7.6317 55.8661 7.86612C55.6317 8.10054 55.5 8.41848 55.5 8.75C55.5 9.08152 55.6317 9.39946 55.8661 9.63388C56.1005 9.8683 56.4185 10 56.75 10ZM79.25 20H56.75C56.4185 20 56.1005 20.1317 55.8661 20.3661C55.6317 20.6005 55.5 20.9185 55.5 21.25C55.5 21.5815 55.6317 21.8995 55.8661 22.1339C56.1005 22.3683 56.4185 22.5 56.75 22.5H79.25C79.5815 22.5 79.8995 22.3683 80.1339 22.1339C80.3683 21.8995 80.5 21.5815 80.5 21.25C80.5 20.9185 80.3683 20.6005 80.1339 20.3661C79.8995 20.1317 79.5815 20 79.25 20ZM79.25 13.75H56.75C56.4185 13.75 56.1005 13.8817 55.8661 14.1161C55.6317 14.3505 55.5 14.6685 55.5 15C55.5 15.3315 55.6317 15.6495 55.8661 15.8839C56.1005 16.1183 56.4185 16.25 56.75 16.25H79.25C79.5815 16.25 79.8995 16.1183 80.1339 15.8839C80.3683 15.6495 80.5 15.3315 80.5 15C80.5 14.6685 80.3683 14.3505 80.1339 14.1161C79.8995 13.8817 79.5815 13.75 79.25 13.75Z" fill="#0A033C"/>
<path d="M2.00138 20H3.61738V12.176L7.47338 19.36L11.3294 12.176V20H12.9454V9.008H11.3294L7.47338 16.192L3.61738 9.008H2.00138V20ZM19.2878 18.784C17.8638 18.784 16.8558 17.792 16.6478 16.416H23.1597C23.1597 13.456 21.7038 11.536 19.1758 11.536C16.8878 11.536 15.0478 13.36 15.0478 15.84C15.0478 18.384 16.9998 20.192 19.3038 20.192C20.4718 20.192 21.9118 19.696 22.6478 18.912L21.6558 17.888C21.1598 18.4 20.1518 18.784 19.2878 18.784ZM19.2398 12.944C20.6638 12.944 21.4478 13.872 21.6238 15.152H16.6638C16.9198 13.808 17.9598 12.944 19.2398 12.944ZM29.2038 11.536C28.0838 11.536 27.0758 12.112 26.5798 12.928V11.728H24.9958V20H26.5798V14.64C26.7078 13.664 27.6998 12.912 28.8518 12.912C29.9718 12.912 30.7558 13.776 30.7558 15.008V20H32.3078V14.736C32.3078 12.864 31.0278 11.536 29.2038 11.536ZM40.2699 11.728V17.088C40.1419 18.064 39.1499 18.816 37.9979 18.816C36.8779 18.816 36.0939 17.952 36.0939 16.72V11.728H34.5419V16.992C34.5419 18.864 35.8219 20.192 37.6459 20.192C38.7659 20.192 39.7739 19.616 40.2699 18.8V20H41.8539V11.728H40.2699Z" fill="#0A033C"/>
</svg>
